<mxfile host="app.diagrams.net" modified="2020-09-13T14:31:31.898Z" agent="5.0 (Windows NT 10.0; Win64; x64) AppleWebKit/537.36 (KHTML, like Gecko) Chrome/84.0.4147.105 Safari/537.36" etag="yAquGhy9Y74MwtEWPFb0" version="13.6.10" type="github">
  <diagram name="Page-1" id="099fd60b-425b-db50-ffb0-6b813814b670">
    <mxGraphModel dx="593" dy="350" grid="1" gridSize="2" guides="1" tooltips="1" connect="1" arrows="1" fold="1" page="1" pageScale="1" pageWidth="850" pageHeight="1100" background="#ffffff" math="0" shadow="0">
      <root>
        <mxCell id="0" />
        <mxCell id="1" parent="0" />
        <mxCell id="8Gvp93KOnGWnNDizMfey-4" value="" style="endArrow=none;html=1;" edge="1" parent="1" source="8Gvp93KOnGWnNDizMfey-10">
          <mxGeometry width="50" height="50" relative="1" as="geometry">
            <mxPoint x="200" y="460" as="sourcePoint" />
            <mxPoint x="200" y="150" as="targetPoint" />
          </mxGeometry>
        </mxCell>
        <mxCell id="8Gvp93KOnGWnNDizMfey-6" value="" style="endArrow=none;html=1;" edge="1" parent="1" source="8Gvp93KOnGWnNDizMfey-15">
          <mxGeometry width="50" height="50" relative="1" as="geometry">
            <mxPoint x="360" y="460" as="sourcePoint" />
            <mxPoint x="360" y="150" as="targetPoint" />
          </mxGeometry>
        </mxCell>
        <mxCell id="8Gvp93KOnGWnNDizMfey-9" value="" style="endArrow=none;html=1;rounded=1;" edge="1" parent="1" source="8Gvp93KOnGWnNDizMfey-13">
          <mxGeometry width="50" height="50" relative="1" as="geometry">
            <mxPoint x="280" y="490" as="sourcePoint" />
            <mxPoint x="280" y="182" as="targetPoint" />
          </mxGeometry>
        </mxCell>
        <mxCell id="8Gvp93KOnGWnNDizMfey-10" value="" style="rounded=0;whiteSpace=wrap;html=1;" vertex="1" parent="1">
          <mxGeometry x="190" y="230" width="20" height="40" as="geometry" />
        </mxCell>
        <mxCell id="8Gvp93KOnGWnNDizMfey-12" value="" style="endArrow=none;html=1;" edge="1" parent="1" target="8Gvp93KOnGWnNDizMfey-10">
          <mxGeometry width="50" height="50" relative="1" as="geometry">
            <mxPoint x="200" y="434" as="sourcePoint" />
            <mxPoint x="200" y="150" as="targetPoint" />
          </mxGeometry>
        </mxCell>
        <mxCell id="8Gvp93KOnGWnNDizMfey-13" value="" style="rounded=0;whiteSpace=wrap;html=1;" vertex="1" parent="1">
          <mxGeometry x="270" y="250" width="20" height="40" as="geometry" />
        </mxCell>
        <mxCell id="8Gvp93KOnGWnNDizMfey-15" value="" style="rounded=0;whiteSpace=wrap;html=1;" vertex="1" parent="1">
          <mxGeometry x="350" y="230" width="20" height="40" as="geometry" />
        </mxCell>
        <mxCell id="8Gvp93KOnGWnNDizMfey-16" value="" style="endArrow=none;html=1;" edge="1" parent="1" target="8Gvp93KOnGWnNDizMfey-15">
          <mxGeometry width="50" height="50" relative="1" as="geometry">
            <mxPoint x="360" y="434" as="sourcePoint" />
            <mxPoint x="360" y="150" as="targetPoint" />
          </mxGeometry>
        </mxCell>
        <mxCell id="8Gvp93KOnGWnNDizMfey-21" value="" style="endArrow=none;html=1;exitX=1;exitY=0;exitDx=0;exitDy=0;" edge="1" parent="1" source="8Gvp93KOnGWnNDizMfey-27" target="8Gvp93KOnGWnNDizMfey-51">
          <mxGeometry width="50" height="50" relative="1" as="geometry">
            <mxPoint x="300" y="350" as="sourcePoint" />
            <mxPoint x="300" y="280" as="targetPoint" />
          </mxGeometry>
        </mxCell>
        <mxCell id="8Gvp93KOnGWnNDizMfey-26" value="" style="ellipse;whiteSpace=wrap;html=1;aspect=fixed;" vertex="1" parent="1">
          <mxGeometry x="265" y="320" width="10" height="10" as="geometry" />
        </mxCell>
        <mxCell id="8Gvp93KOnGWnNDizMfey-27" value="" style="ellipse;whiteSpace=wrap;html=1;aspect=fixed;" vertex="1" parent="1">
          <mxGeometry x="310" y="340" width="10" height="10" as="geometry" />
        </mxCell>
        <mxCell id="8Gvp93KOnGWnNDizMfey-28" value="" style="ellipse;whiteSpace=wrap;html=1;aspect=fixed;" vertex="1" parent="1">
          <mxGeometry x="220" y="340" width="10" height="10" as="geometry" />
        </mxCell>
        <mxCell id="8Gvp93KOnGWnNDizMfey-29" value="" style="endArrow=none;html=1;dashed=1;entryX=1;entryY=0.5;entryDx=0;entryDy=0;exitX=0;exitY=0;exitDx=0;exitDy=19.20630072640928;exitPerimeter=0;" edge="1" parent="1" target="8Gvp93KOnGWnNDizMfey-28">
          <mxGeometry width="50" height="50" relative="1" as="geometry">
            <mxPoint x="230" y="349.2063007264094" as="sourcePoint" />
            <mxPoint x="210" y="250" as="targetPoint" />
          </mxGeometry>
        </mxCell>
        <mxCell id="8Gvp93KOnGWnNDizMfey-31" value="" style="endArrow=none;html=1;" edge="1" parent="1">
          <mxGeometry width="50" height="50" relative="1" as="geometry">
            <mxPoint x="184" y="274" as="sourcePoint" />
            <mxPoint x="184" y="250" as="targetPoint" />
          </mxGeometry>
        </mxCell>
        <mxCell id="8Gvp93KOnGWnNDizMfey-32" value="" style="endArrow=none;html=1;" edge="1" parent="1">
          <mxGeometry width="50" height="50" relative="1" as="geometry">
            <mxPoint x="184" y="274" as="sourcePoint" />
            <mxPoint x="214" y="274" as="targetPoint" />
          </mxGeometry>
        </mxCell>
        <mxCell id="8Gvp93KOnGWnNDizMfey-33" value="" style="endArrow=none;html=1;" edge="1" parent="1">
          <mxGeometry width="50" height="50" relative="1" as="geometry">
            <mxPoint x="214" y="274" as="sourcePoint" />
            <mxPoint x="214" y="250" as="targetPoint" />
          </mxGeometry>
        </mxCell>
        <mxCell id="8Gvp93KOnGWnNDizMfey-34" value="" style="endArrow=none;html=1;" edge="1" parent="1">
          <mxGeometry width="50" height="50" relative="1" as="geometry">
            <mxPoint x="265" y="294" as="sourcePoint" />
            <mxPoint x="265" y="270" as="targetPoint" />
          </mxGeometry>
        </mxCell>
        <mxCell id="8Gvp93KOnGWnNDizMfey-35" value="" style="endArrow=none;html=1;" edge="1" parent="1">
          <mxGeometry width="50" height="50" relative="1" as="geometry">
            <mxPoint x="265" y="294" as="sourcePoint" />
            <mxPoint x="295" y="294" as="targetPoint" />
          </mxGeometry>
        </mxCell>
        <mxCell id="8Gvp93KOnGWnNDizMfey-36" value="" style="endArrow=none;html=1;" edge="1" parent="1">
          <mxGeometry width="50" height="50" relative="1" as="geometry">
            <mxPoint x="295" y="294" as="sourcePoint" />
            <mxPoint x="295" y="270" as="targetPoint" />
          </mxGeometry>
        </mxCell>
        <mxCell id="8Gvp93KOnGWnNDizMfey-37" value="" style="endArrow=none;html=1;" edge="1" parent="1">
          <mxGeometry width="50" height="50" relative="1" as="geometry">
            <mxPoint x="344.71000000000004" y="274" as="sourcePoint" />
            <mxPoint x="344.71000000000004" y="250" as="targetPoint" />
          </mxGeometry>
        </mxCell>
        <mxCell id="8Gvp93KOnGWnNDizMfey-38" value="" style="endArrow=none;html=1;" edge="1" parent="1">
          <mxGeometry width="50" height="50" relative="1" as="geometry">
            <mxPoint x="344.71000000000004" y="274" as="sourcePoint" />
            <mxPoint x="374.71000000000004" y="274" as="targetPoint" />
          </mxGeometry>
        </mxCell>
        <mxCell id="8Gvp93KOnGWnNDizMfey-39" value="" style="endArrow=none;html=1;" edge="1" parent="1">
          <mxGeometry width="50" height="50" relative="1" as="geometry">
            <mxPoint x="374.71000000000004" y="274" as="sourcePoint" />
            <mxPoint x="374.71000000000004" y="250" as="targetPoint" />
          </mxGeometry>
        </mxCell>
        <mxCell id="8Gvp93KOnGWnNDizMfey-41" value="" style="endArrow=none;html=1;" edge="1" parent="1">
          <mxGeometry width="50" height="50" relative="1" as="geometry">
            <mxPoint x="224" y="352" as="sourcePoint" />
            <mxPoint x="230" y="340" as="targetPoint" />
            <Array as="points">
              <mxPoint x="218" y="348" />
              <mxPoint x="218" y="343" />
              <mxPoint x="220" y="340" />
              <mxPoint x="222" y="338" />
              <mxPoint x="226" y="338" />
            </Array>
          </mxGeometry>
        </mxCell>
        <mxCell id="8Gvp93KOnGWnNDizMfey-42" value="" style="endArrow=none;html=1;" edge="1" parent="1">
          <mxGeometry width="50" height="50" relative="1" as="geometry">
            <mxPoint x="269" y="332" as="sourcePoint" />
            <mxPoint x="275" y="320" as="targetPoint" />
            <Array as="points">
              <mxPoint x="263" y="328" />
              <mxPoint x="263" y="323" />
              <mxPoint x="265" y="320" />
              <mxPoint x="267" y="318" />
              <mxPoint x="271" y="318" />
            </Array>
          </mxGeometry>
        </mxCell>
        <mxCell id="8Gvp93KOnGWnNDizMfey-43" value="" style="endArrow=none;html=1;" edge="1" parent="1">
          <mxGeometry width="50" height="50" relative="1" as="geometry">
            <mxPoint x="314" y="352" as="sourcePoint" />
            <mxPoint x="320" y="340" as="targetPoint" />
            <Array as="points">
              <mxPoint x="308" y="348" />
              <mxPoint x="308" y="343" />
              <mxPoint x="310" y="340" />
              <mxPoint x="312" y="338" />
              <mxPoint x="316" y="338" />
            </Array>
          </mxGeometry>
        </mxCell>
        <mxCell id="8Gvp93KOnGWnNDizMfey-45" value="" style="ellipse;whiteSpace=wrap;html=1;aspect=fixed;" vertex="1" parent="1">
          <mxGeometry x="195" y="245" width="10" height="10" as="geometry" />
        </mxCell>
        <mxCell id="8Gvp93KOnGWnNDizMfey-44" value="" style="endArrow=none;html=1;" edge="1" parent="1" target="8Gvp93KOnGWnNDizMfey-45">
          <mxGeometry width="50" height="50" relative="1" as="geometry">
            <mxPoint x="224" y="337.9999999999999" as="sourcePoint" />
            <mxPoint x="208" y="256" as="targetPoint" />
          </mxGeometry>
        </mxCell>
        <mxCell id="8Gvp93KOnGWnNDizMfey-47" value="" style="endArrow=none;html=1;exitX=0.5;exitY=0.6;exitDx=0;exitDy=0;exitPerimeter=0;" edge="1" parent="1" source="8Gvp93KOnGWnNDizMfey-28">
          <mxGeometry width="50" height="50" relative="1" as="geometry">
            <mxPoint x="220" y="374" as="sourcePoint" />
            <mxPoint x="270" y="326" as="targetPoint" />
          </mxGeometry>
        </mxCell>
        <mxCell id="8Gvp93KOnGWnNDizMfey-48" value="" style="endArrow=none;html=1;exitX=0.5;exitY=0.6;exitDx=0;exitDy=0;exitPerimeter=0;" edge="1" parent="1" source="8Gvp93KOnGWnNDizMfey-28">
          <mxGeometry width="50" height="50" relative="1" as="geometry">
            <mxPoint x="244" y="340" as="sourcePoint" />
            <mxPoint x="315" y="346" as="targetPoint" />
          </mxGeometry>
        </mxCell>
        <mxCell id="8Gvp93KOnGWnNDizMfey-49" value="" style="endArrow=none;html=1;" edge="1" parent="1">
          <mxGeometry width="50" height="50" relative="1" as="geometry">
            <mxPoint x="316" y="346" as="sourcePoint" />
            <mxPoint x="270" y="326" as="targetPoint" />
          </mxGeometry>
        </mxCell>
        <mxCell id="8Gvp93KOnGWnNDizMfey-50" value="" style="ellipse;whiteSpace=wrap;html=1;aspect=fixed;" vertex="1" parent="1">
          <mxGeometry x="275" y="264" width="10" height="10" as="geometry" />
        </mxCell>
        <mxCell id="8Gvp93KOnGWnNDizMfey-51" value="" style="ellipse;whiteSpace=wrap;html=1;aspect=fixed;" vertex="1" parent="1">
          <mxGeometry x="355" y="245" width="10" height="10" as="geometry" />
        </mxCell>
        <mxCell id="8Gvp93KOnGWnNDizMfey-22" value="" style="endArrow=none;html=1;exitX=0.5;exitY=0;exitDx=0;exitDy=0;" edge="1" parent="1" source="8Gvp93KOnGWnNDizMfey-26" target="8Gvp93KOnGWnNDizMfey-50">
          <mxGeometry width="50" height="50" relative="1" as="geometry">
            <mxPoint x="277" y="321" as="sourcePoint" />
            <mxPoint x="290" y="320" as="targetPoint" />
          </mxGeometry>
        </mxCell>
        <mxCell id="8Gvp93KOnGWnNDizMfey-52" value="" style="endArrow=none;html=1;" edge="1" parent="1">
          <mxGeometry width="50" height="50" relative="1" as="geometry">
            <mxPoint x="280" y="330" as="sourcePoint" />
            <mxPoint x="279.58" y="294" as="targetPoint" />
          </mxGeometry>
        </mxCell>
        <mxCell id="8Gvp93KOnGWnNDizMfey-53" value="" style="endArrow=none;html=1;" edge="1" parent="1">
          <mxGeometry width="50" height="50" relative="1" as="geometry">
            <mxPoint x="280" y="466" as="sourcePoint" />
            <mxPoint x="279.7099999999999" y="346" as="targetPoint" />
          </mxGeometry>
        </mxCell>
        <mxCell id="8Gvp93KOnGWnNDizMfey-54" value="" style="endArrow=none;html=1;" edge="1" parent="1">
          <mxGeometry width="50" height="50" relative="1" as="geometry">
            <mxPoint x="200" y="150" as="sourcePoint" />
            <mxPoint x="280" y="182" as="targetPoint" />
          </mxGeometry>
        </mxCell>
        <mxCell id="8Gvp93KOnGWnNDizMfey-55" value="" style="endArrow=none;html=1;" edge="1" parent="1">
          <mxGeometry width="50" height="50" relative="1" as="geometry">
            <mxPoint x="200" y="150" as="sourcePoint" />
            <mxPoint x="360" y="150" as="targetPoint" />
          </mxGeometry>
        </mxCell>
        <mxCell id="8Gvp93KOnGWnNDizMfey-56" value="" style="endArrow=none;html=1;" edge="1" parent="1">
          <mxGeometry width="50" height="50" relative="1" as="geometry">
            <mxPoint x="280" y="182" as="sourcePoint" />
            <mxPoint x="360" y="150" as="targetPoint" />
          </mxGeometry>
        </mxCell>
        <mxCell id="8Gvp93KOnGWnNDizMfey-57" value="" style="endArrow=none;html=1;" edge="1" parent="1">
          <mxGeometry width="50" height="50" relative="1" as="geometry">
            <mxPoint x="200" y="434" as="sourcePoint" />
            <mxPoint x="280" y="466" as="targetPoint" />
          </mxGeometry>
        </mxCell>
        <mxCell id="8Gvp93KOnGWnNDizMfey-58" value="" style="endArrow=none;html=1;" edge="1" parent="1">
          <mxGeometry width="50" height="50" relative="1" as="geometry">
            <mxPoint x="200" y="434" as="sourcePoint" />
            <mxPoint x="360" y="434" as="targetPoint" />
          </mxGeometry>
        </mxCell>
        <mxCell id="8Gvp93KOnGWnNDizMfey-59" value="" style="endArrow=none;html=1;" edge="1" parent="1">
          <mxGeometry width="50" height="50" relative="1" as="geometry">
            <mxPoint x="280" y="466" as="sourcePoint" />
            <mxPoint x="360" y="434" as="targetPoint" />
          </mxGeometry>
        </mxCell>
      </root>
    </mxGraphModel>
  </diagram>
</mxfile>
